<svg width="50" height="62" viewBox="0 0 50 62" fill="none" xmlns="http://www.w3.org/2000/svg">
<path d="M36.8011 0.329834H37.2374C37.5875 4.65494 35.9367 7.88666 33.9303 10.227C31.9617 12.5511 29.2659 14.8052 24.9057 14.4632C24.6149 10.2 26.2684 7.208 28.2721 4.87308C30.1303 2.69706 33.5371 0.760729 36.8011 0.329834ZM50 45.3476V45.4688C48.7746 49.1799 47.0268 52.3604 44.8939 55.3121C42.9468 57.9917 40.5607 61.5977 36.3002 61.5977C32.6188 61.5977 30.1734 59.2305 26.4004 59.1659C22.4092 59.1012 20.2144 61.1453 16.5652 61.6597H15.321C12.6414 61.2719 10.4788 59.1497 8.90337 57.2376C4.25778 51.5875 0.667888 44.2892 0 34.9496V32.2053C0.282775 25.521 3.53065 20.0864 7.84768 17.4525C10.126 16.0521 13.2581 14.8591 16.7457 15.3923C18.2403 15.6239 19.7673 16.1356 21.1058 16.6419C22.3742 17.1294 23.9605 17.9938 25.4632 17.9481C26.4812 17.9184 27.4938 17.3879 28.5199 17.0136C31.5254 15.9282 34.4716 14.684 38.3551 15.2684C43.0222 15.974 46.3347 18.0477 48.3815 21.2471C44.4334 23.7598 41.3121 27.5462 41.8453 34.0124C42.3193 39.886 45.7341 43.3224 50 45.3476Z" fill="black"/>
</svg>
